<svg xmlns="http://www.w3.org/2000/svg" viewBox="0 0 532.0 148.0" role="img" aria-label="Luora — La lumière sur votre savoir-faire">
  <defs>
    <filter id="halo" x="-90%" y="-90%" width="280%" height="280%">
      <feGaussianBlur stdDeviation="3.4"/>
    </filter>
    <radialGradient id="ray" cx="50%" cy="50%" r="50%">
      <stop offset="0%" stop-color="#E9A34C" stop-opacity="0.55"/>
      <stop offset="100%" stop-color="#E9A34C" stop-opacity="0"/>
    </radialGradient>
  </defs>
  <rect x="0" y="0" width="532.0" height="148.0" rx="20" fill="#1C2B33"/>
  <g transform="translate(22.00 22.00) scale(0.8000)">
    <polygon points="50,6 18,30 50,46" fill="#3A5763"/>
    <polygon points="50,6 82,30 50,46" fill="#22343C"/>
    <polygon points="18,30 12,56 50,46" fill="#C1652F"/>
    <polygon points="82,30 88,56 50,46" fill="#2A3F48"/>
    <polygon points="12,56 50,46 50,86" fill="#40606C"/>
    <polygon points="88,56 50,46 50,86" fill="#22343C"/>
    <polygon points="12,56 50,86 50,124" fill="#2A3F48"/>
    <polygon points="88,56 50,86 50,124" fill="#1A282F"/>
    <circle cx="50" cy="43" r="7.5" fill="#FDF6EC"/>
    <circle cx="50" cy="43" r="7.5" fill="none" stroke="#E9A34C" stroke-width="1.2" opacity="0.75"/>
  </g>
  <g transform="translate(132.00 24.33) scale(0.860)">
    <path d="M20.900000000000002 0.0V74.0H6.9V0.0Z M87.0 18.599999999999994V74.0H72.9V67.0Q70.2 70.6 65.85 72.65Q61.5 74.7 56.400000000000006 74.7Q49.900000000000006 74.7 44.900000000000006 71.95Q39.900000000000006 69.2 37.050000000000004 63.85Q34.2 58.5 34.2 51.099999999999994V18.599999999999994H48.2V49.099999999999994Q48.2 55.7 51.5 59.25Q54.8 62.8 60.5 62.8Q66.3 62.8 69.6 59.25Q72.9 55.7 72.9 49.099999999999994V18.599999999999994Z M195.60000000000002 17.799999999999997V32.5H191.90000000000003Q185.3 32.5 181.95000000000002 35.599999999999994Q178.60000000000002 38.699999999999996 178.60000000000002 46.4V74.0H164.60000000000002V18.599999999999994H178.60000000000002V27.199999999999996Q181.3 22.799999999999997 185.65000000000003 20.299999999999997Q190.00000000000003 17.799999999999997 195.60000000000002 17.799999999999997Z M226.70000000000002 17.699999999999996Q232.90000000000003 17.699999999999996 237.55 20.199999999999996Q242.20000000000002 22.699999999999996 245.00000000000003 26.5V18.599999999999994H259.1V74.0H245.00000000000003V65.9Q242.3 69.8 237.55 72.35Q232.8 74.9 226.60000000000002 74.9Q219.60000000000002 74.9 213.85000000000002 71.30000000000001Q208.10000000000002 67.7 204.75000000000003 61.15Q201.40000000000003 54.599999999999994 201.40000000000003 46.099999999999994Q201.40000000000003 37.699999999999996 204.75000000000003 31.199999999999996Q208.10000000000002 24.699999999999996 213.85000000000002 21.199999999999996Q219.60000000000002 17.699999999999996 226.70000000000002 17.699999999999996ZM230.3 30.0Q226.40000000000003 30.0 223.10000000000002 31.9Q219.8 33.8 217.75 37.45Q215.70000000000002 41.1 215.70000000000002 46.099999999999994Q215.70000000000002 51.099999999999994 217.75 54.849999999999994Q219.8 58.6 223.15000000000003 60.6Q226.50000000000003 62.6 230.3 62.6Q234.20000000000002 62.6 237.60000000000002 60.650000000000006Q241.00000000000003 58.7 243.00000000000003 55.05Q245.00000000000003 51.4 245.00000000000003 46.3Q245.00000000000003 41.199999999999996 243.00000000000003 37.55Q241.00000000000003 33.9 237.60000000000002 31.95Q234.20000000000002 30.0 230.3 30.0Z" fill="#FDF6EC"/>
    <path d="M97.30000000000001 46.3Q97.30000000000001 37.8 101.05000000000001 31.299999999999997Q104.80000000000001 24.799999999999997 111.30000000000001 21.249999999999996Q117.80000000000001 17.699999999999996 125.80000000000001 17.699999999999996Q133.8 17.699999999999996 140.3 21.249999999999996Q146.8 24.799999999999997 150.55 31.299999999999997Q154.3 37.8 154.3 46.3Q154.3 54.8 150.45000000000002 61.3Q146.60000000000002 67.8 140.05 71.35Q133.5 74.9 125.4 74.9Q117.4 74.9 111.0 71.35Q104.60000000000001 67.8 100.95000000000002 61.3Q97.30000000000001 54.8 97.30000000000001 46.3ZM139.9 46.3Q139.9 38.4 135.75 34.15Q131.60000000000002 29.9 125.60000000000001 29.9Q119.60000000000001 29.9 115.55000000000001 34.15Q111.5 38.4 111.5 46.3Q111.5 54.2 115.45 58.45Q119.4 62.7 125.4 62.7Q129.20000000000002 62.7 132.55 60.85Q135.9 59.0 137.9 55.3Q139.9 51.599999999999994 139.9 46.3Z" fill="#E9A34C" filter="url(#halo)" opacity="0.85"/>
    <path d="M97.30000000000001 46.3Q97.30000000000001 37.8 101.05000000000001 31.299999999999997Q104.80000000000001 24.799999999999997 111.30000000000001 21.249999999999996Q117.80000000000001 17.699999999999996 125.80000000000001 17.699999999999996Q133.8 17.699999999999996 140.3 21.249999999999996Q146.8 24.799999999999997 150.55 31.299999999999997Q154.3 37.8 154.3 46.3Q154.3 54.8 150.45000000000002 61.3Q146.60000000000002 67.8 140.05 71.35Q133.5 74.9 125.4 74.9Q117.4 74.9 111.0 71.35Q104.60000000000001 67.8 100.95000000000002 61.3Q97.30000000000001 54.8 97.30000000000001 46.3ZM139.9 46.3Q139.9 38.4 135.75 34.15Q131.60000000000002 29.9 125.60000000000001 29.9Q119.60000000000001 29.9 115.55000000000001 34.15Q111.5 38.4 111.5 46.3Q111.5 54.2 115.45 58.45Q119.4 62.7 125.4 62.7Q129.20000000000002 62.7 132.55 60.85Q135.9 59.0 137.9 55.3Q139.9 51.599999999999994 139.9 46.3Z" fill="#C1652F"/>
  </g>
  <g transform="translate(132.00 104.75) scale(0.2350)">
    <path d="M18.900000000000002 70.4H42.400000000000006V79.60000000000001H7.5V10.100000000000009H18.900000000000002Z M74.10000000000001 23.60000000000001Q80.60000000000001 23.60000000000001 85.45000000000002 26.150000000000006Q90.30000000000001 28.700000000000003 93.20000000000002 32.50000000000001V24.500000000000007H104.70000000000002V79.60000000000001H93.20000000000002V71.4Q90.30000000000001 75.30000000000001 85.30000000000001 77.9Q80.30000000000001 80.50000000000001 73.9 80.50000000000001Q66.80000000000001 80.50000000000001 60.900000000000006 76.85000000000001Q55.00000000000001 73.2 51.55000000000001 66.65Q48.10000000000001 60.10000000000001 48.10000000000001 51.80000000000001Q48.10000000000001 43.50000000000001 51.55000000000001 37.10000000000001Q55.00000000000001 30.700000000000003 60.95 27.150000000000006Q66.9 23.60000000000001 74.10000000000001 23.60000000000001ZM76.5 33.50000000000001Q72.10000000000001 33.50000000000001 68.30000000000001 35.650000000000006Q64.5 37.800000000000004 62.150000000000006 41.95Q59.800000000000004 46.10000000000001 59.800000000000004 51.80000000000001Q59.800000000000004 57.50000000000001 62.150000000000006 61.80000000000001Q64.5 66.10000000000001 68.35 68.35000000000001Q72.2 70.60000000000001 76.5 70.60000000000001Q80.9 70.60000000000001 84.7 68.4Q88.5 66.2 90.85000000000001 61.95Q93.20000000000002 57.7 93.20000000000002 52.00000000000001Q93.20000000000002 46.300000000000004 90.85000000000001 42.10000000000001Q88.5 37.900000000000006 84.7 35.7Q80.9 33.50000000000001 76.5 33.50000000000001Z M157.10000000000002 5.6000000000000085V79.60000000000001H145.70000000000002V5.6000000000000085Z M222.00000000000003 24.500000000000007V79.60000000000001H210.60000000000002V73.10000000000001Q207.90000000000003 76.50000000000001 203.55 78.45000000000002Q199.20000000000002 80.4 194.3 80.4Q187.8 80.4 182.65000000000003 77.70000000000002Q177.50000000000003 75.00000000000001 174.55 69.70000000000002Q171.60000000000002 64.4 171.60000000000002 56.900000000000006V24.500000000000007H182.90000000000003V55.2Q182.90000000000003 62.60000000000001 186.60000000000002 66.55000000000001Q190.3 70.50000000000001 196.70000000000002 70.50000000000001Q203.10000000000002 70.50000000000001 206.85000000000002 66.55000000000001Q210.60000000000002 62.60000000000001 210.60000000000002 55.2V24.500000000000007Z M326.4 47.10000000000001V79.60000000000001H315.1V48.80000000000001Q315.1 41.400000000000006 311.4 37.45Q307.7 33.50000000000001 301.3 33.50000000000001Q294.9 33.50000000000001 291.15 37.45Q287.4 41.400000000000006 287.4 48.80000000000001V79.60000000000001H276.1V48.80000000000001Q276.1 41.400000000000006 272.4 37.45Q268.7 33.50000000000001 262.3 33.50000000000001Q255.9 33.50000000000001 252.15 37.45Q248.4 41.400000000000006 248.4 48.80000000000001V79.60000000000001H237.0V24.500000000000007H248.4V30.800000000000004Q251.2 27.400000000000006 255.5 25.500000000000007Q259.8 23.60000000000001 264.7 23.60000000000001Q271.3 23.60000000000001 276.5 26.400000000000006Q281.7 29.200000000000003 284.5 34.50000000000001Q287.0 29.500000000000007 292.3 26.550000000000008Q297.6 23.60000000000001 303.7 23.60000000000001Q310.2 23.60000000000001 315.35 26.300000000000008Q320.5 29.000000000000007 323.45 34.30000000000001Q326.4 39.60000000000001 326.4 47.10000000000001Z M339.40000000000003 9.900000000000006Q339.40000000000003 6.800000000000011 341.5 4.70000000000001Q343.6 2.6000000000000085 346.70000000000005 2.6000000000000085Q349.70000000000005 2.6000000000000085 351.80000000000007 4.70000000000001Q353.90000000000003 6.800000000000011 353.90000000000003 9.900000000000006Q353.90000000000003 13.0 351.80000000000007 15.100000000000001Q349.70000000000005 17.200000000000003 346.70000000000005 17.200000000000003Q343.6 17.200000000000003 341.5 15.100000000000001Q339.40000000000003 13.0 339.40000000000003 9.900000000000006ZM352.3 24.500000000000007V79.60000000000001H340.90000000000003V24.500000000000007Z M417.40000000000003 56.30000000000001H375.3Q375.8 62.900000000000006 380.20000000000005 66.9Q384.6 70.9 391.0 70.9Q400.20000000000005 70.9 404.0 63.2H416.3Q413.8 70.80000000000001 407.25 75.65Q400.70000000000005 80.50000000000001 391.0 80.50000000000001Q383.1 80.50000000000001 376.85 76.95000000000002Q370.6 73.4 367.05 66.95Q363.5 60.50000000000001 363.5 52.00000000000001Q363.5 43.50000000000001 366.95000000000005 37.05000000000001Q370.40000000000003 30.60000000000001 376.65000000000003 27.10000000000001Q382.90000000000003 23.60000000000001 391.0 23.60000000000001Q398.8 23.60000000000001 404.9 27.000000000000007Q411.0 30.400000000000006 414.4 36.55000000000001Q417.8 42.70000000000001 417.8 50.7Q417.8 53.80000000000001 417.40000000000003 56.30000000000001ZM405.90000000000003 47.10000000000001Q405.8 40.800000000000004 401.4 37.0Q397.0 33.2 390.5 33.2Q384.6 33.2 380.4 36.95Q376.2 40.7 375.40000000000003 47.10000000000001ZM401.00000000000006 12.200000000000003V20.60000000000001L378.90000000000003 9.700000000000003V0.0Z M456.9 23.60000000000001V35.400000000000006H454.0Q447.3 35.400000000000006 443.85 38.80000000000001Q440.4 42.20000000000001 440.4 50.60000000000001V79.60000000000001H429.0V24.500000000000007H440.4V32.50000000000001Q442.9 28.300000000000004 447.04999999999995 25.950000000000006Q451.2 23.60000000000001 456.9 23.60000000000001Z M517.5 56.30000000000001H475.40000000000003Q475.90000000000003 62.900000000000006 480.30000000000007 66.9Q484.70000000000005 70.9 491.1 70.9Q500.30000000000007 70.9 504.1 63.2H516.4000000000001Q513.9000000000001 70.80000000000001 507.3500000000001 75.65Q500.80000000000007 80.50000000000001 491.1 80.50000000000001Q483.20000000000005 80.50000000000001 476.95000000000005 76.95000000000002Q470.70000000000005 73.4 467.15000000000003 66.95Q463.6 60.50000000000001 463.6 52.00000000000001Q463.6 43.50000000000001 467.05000000000007 37.05000000000001Q470.50000000000006 30.60000000000001 476.75000000000006 27.10000000000001Q483.00000000000006 23.60000000000001 491.1 23.60000000000001Q498.90000000000003 23.60000000000001 505.0 27.000000000000007Q511.1 30.400000000000006 514.5 36.55000000000001Q517.9000000000001 42.70000000000001 517.9000000000001 50.7Q517.9000000000001 53.80000000000001 517.5 56.30000000000001ZM506.00000000000006 47.10000000000001Q505.90000000000003 40.800000000000004 501.5 37.0Q497.1 33.2 490.6 33.2Q484.70000000000005 33.2 480.5 36.95Q476.3 40.7 475.50000000000006 47.10000000000001Z M552.1 62.7H563.9Q564.2 66.2 567.25 68.55000000000001Q570.3000000000001 70.9 574.9 70.9Q579.7 70.9 582.35 69.05000000000001Q585.0 67.2 585.0 64.30000000000001Q585.0 61.2 582.05 59.7Q579.1 58.2 572.7 56.400000000000006Q566.5 54.7 562.6 53.10000000000001Q558.7 51.50000000000001 555.85 48.2Q553.0 44.900000000000006 553.0 39.50000000000001Q553.0 35.10000000000001 555.6 31.450000000000006Q558.2 27.800000000000004 563.05 25.700000000000006Q567.9 23.60000000000001 574.2 23.60000000000001Q583.6 23.60000000000001 589.35 28.35000000000001Q595.1 33.10000000000001 595.5 41.300000000000004H584.1Q583.8000000000001 37.60000000000001 581.1 35.400000000000006Q578.4 33.2 573.8000000000001 33.2Q569.3000000000001 33.2 566.9000000000001 34.900000000000006Q564.5 36.60000000000001 564.5 39.400000000000006Q564.5 41.60000000000001 566.1 43.10000000000001Q567.7 44.60000000000001 570.0 45.45Q572.3000000000001 46.300000000000004 576.8000000000001 47.60000000000001Q582.8000000000001 49.2 586.6500000000001 50.85000000000001Q590.5 52.50000000000001 593.3 55.7Q596.1 58.900000000000006 596.2 64.2Q596.2 68.9 593.6 72.60000000000001Q591.0 76.30000000000001 586.25 78.4Q581.5 80.50000000000001 575.1 80.50000000000001Q568.6 80.50000000000001 563.45 78.15Q558.3000000000001 75.80000000000001 555.3000000000001 71.75Q552.3000000000001 67.7 552.1 62.7Z M658.4 24.500000000000007V79.60000000000001H647.0V73.10000000000001Q644.3 76.50000000000001 639.95 78.45000000000002Q635.6 80.4 630.7 80.4Q624.2 80.4 619.05 77.70000000000002Q613.9 75.00000000000001 610.95 69.70000000000002Q608.0 64.4 608.0 56.900000000000006V24.500000000000007H619.3V55.2Q619.3 62.60000000000001 623.0 66.55000000000001Q626.7 70.50000000000001 633.1 70.50000000000001Q639.5 70.50000000000001 643.25 66.55000000000001Q647.0 62.60000000000001 647.0 55.2V24.500000000000007Z M701.3000000000001 23.60000000000001V35.400000000000006H698.4000000000001Q691.7 35.400000000000006 688.25 38.80000000000001Q684.8000000000001 42.20000000000001 684.8000000000001 50.60000000000001V79.60000000000001H673.4000000000001V24.500000000000007H684.8000000000001V32.50000000000001Q687.3000000000001 28.300000000000004 691.45 25.950000000000006Q695.6000000000001 23.60000000000001 701.3000000000001 23.60000000000001Z M759.1 69.4 774.7 24.500000000000007H786.8000000000001L765.8000000000001 79.60000000000001H752.2L731.3000000000001 24.500000000000007H743.5000000000001Z M791.7 52.00000000000001Q791.7 43.60000000000001 795.4000000000001 37.10000000000001Q799.1000000000001 30.60000000000001 805.5000000000001 27.10000000000001Q811.9000000000001 23.60000000000001 819.8000000000001 23.60000000000001Q827.7 23.60000000000001 834.1000000000001 27.10000000000001Q840.5000000000001 30.60000000000001 844.2 37.10000000000001Q847.9000000000001 43.60000000000001 847.9000000000001 52.00000000000001Q847.9000000000001 60.400000000000006 844.1000000000001 66.9Q840.3000000000001 73.4 833.75 76.95000000000002Q827.2 80.50000000000001 819.3000000000001 80.50000000000001Q811.5000000000001 80.50000000000001 805.2 76.95000000000002Q798.9000000000001 73.4 795.3000000000001 66.95Q791.7 60.50000000000001 791.7 52.00000000000001ZM836.2 52.00000000000001Q836.2 46.00000000000001 833.9000000000001 41.85000000000001Q831.6000000000001 37.7 827.8000000000002 35.60000000000001Q824.0000000000001 33.50000000000001 819.6000000000001 33.50000000000001Q815.2 33.50000000000001 811.45 35.60000000000001Q807.7 37.7 805.5 41.85000000000001Q803.3000000000001 46.00000000000001 803.3000000000001 52.00000000000001Q803.3000000000001 60.900000000000006 807.8500000000001 65.75Q812.4000000000001 70.60000000000001 819.3000000000001 70.60000000000001Q823.7 70.60000000000001 827.5500000000001 68.5Q831.4000000000001 66.4 833.8000000000001 62.2Q836.2 58.00000000000001 836.2 52.00000000000001Z M872.5 33.800000000000004V64.30000000000001Q872.5 67.4 873.95 68.75Q875.4000000000001 70.10000000000001 878.9000000000001 70.10000000000001H885.9000000000001V79.60000000000001H876.9000000000001Q869.2 79.60000000000001 865.1 76.0Q861.0 72.4 861.0 64.30000000000001V33.800000000000004H854.5V24.500000000000007H861.0V10.800000000000011H872.5V24.500000000000007H885.9000000000001V33.800000000000004Z M924.3000000000001 23.60000000000001V35.400000000000006H921.4000000000001Q914.7 35.400000000000006 911.25 38.80000000000001Q907.8000000000001 42.20000000000001 907.8000000000001 50.60000000000001V79.60000000000001H896.4000000000001V24.500000000000007H907.8000000000001V32.50000000000001Q910.3000000000001 28.300000000000004 914.45 25.950000000000006Q918.6000000000001 23.60000000000001 924.3000000000001 23.60000000000001Z M984.9000000000001 56.30000000000001H942.8000000000001Q943.3000000000001 62.900000000000006 947.7 66.9Q952.1 70.9 958.5000000000001 70.9Q967.7 70.9 971.5000000000001 63.2H983.8000000000001Q981.3000000000001 70.80000000000001 974.75 75.65Q968.2 80.50000000000001 958.5000000000001 80.50000000000001Q950.6 80.50000000000001 944.35 76.95000000000002Q938.1 73.4 934.5500000000001 66.95Q931.0000000000001 60.50000000000001 931.0000000000001 52.00000000000001Q931.0000000000001 43.50000000000001 934.45 37.05000000000001Q937.9000000000001 30.60000000000001 944.1500000000001 27.10000000000001Q950.4000000000001 23.60000000000001 958.5000000000001 23.60000000000001Q966.3000000000001 23.60000000000001 972.4000000000001 27.000000000000007Q978.5000000000001 30.400000000000006 981.9000000000001 36.55000000000001Q985.3000000000001 42.70000000000001 985.3000000000001 50.7Q985.3000000000001 53.80000000000001 984.9000000000001 56.30000000000001ZM973.4000000000001 47.10000000000001Q973.3000000000001 40.800000000000004 968.9000000000001 37.0Q964.5000000000001 33.2 958.0000000000001 33.2Q952.1 33.2 947.9000000000001 36.95Q943.7 40.7 942.9000000000001 47.10000000000001Z M1019.5 62.7H1031.3Q1031.6 66.2 1034.65 68.55000000000001Q1037.7 70.9 1042.3 70.9Q1047.1 70.9 1049.75 69.05000000000001Q1052.4 67.2 1052.4 64.30000000000001Q1052.4 61.2 1049.45 59.7Q1046.5 58.2 1040.1 56.400000000000006Q1033.9 54.7 1030.0 53.10000000000001Q1026.1 51.50000000000001 1023.25 48.2Q1020.4 44.900000000000006 1020.4 39.50000000000001Q1020.4 35.10000000000001 1023.0 31.450000000000006Q1025.6 27.800000000000004 1030.4499999999998 25.700000000000006Q1035.3 23.60000000000001 1041.6 23.60000000000001Q1051.0 23.60000000000001 1056.75 28.35000000000001Q1062.5 33.10000000000001 1062.9 41.300000000000004H1051.5Q1051.2 37.60000000000001 1048.5 35.400000000000006Q1045.8 33.2 1041.2 33.2Q1036.7 33.2 1034.3000000000002 34.900000000000006Q1031.9 36.60000000000001 1031.9 39.400000000000006Q1031.9 41.60000000000001 1033.5 43.10000000000001Q1035.1 44.60000000000001 1037.4 45.45Q1039.7 46.300000000000004 1044.2 47.60000000000001Q1050.2 49.2 1054.0500000000002 50.85000000000001Q1057.9 52.50000000000001 1060.7 55.7Q1063.5 58.900000000000006 1063.6 64.2Q1063.6 68.9 1061.0 72.60000000000001Q1058.4 76.30000000000001 1053.65 78.4Q1048.9 80.50000000000001 1042.5 80.50000000000001Q1036.0 80.50000000000001 1030.85 78.15Q1025.7 75.80000000000001 1022.7 71.75Q1019.7 67.7 1019.5 62.7Z M1098.1000000000001 23.60000000000001Q1104.6000000000001 23.60000000000001 1109.4500000000003 26.150000000000006Q1114.3000000000002 28.700000000000003 1117.2 32.50000000000001V24.500000000000007H1128.7V79.60000000000001H1117.2V71.4Q1114.3000000000002 75.30000000000001 1109.3000000000002 77.9Q1104.3000000000002 80.50000000000001 1097.9 80.50000000000001Q1090.8000000000002 80.50000000000001 1084.9 76.85000000000001Q1079.0 73.2 1075.5500000000002 66.65Q1072.1000000000001 60.10000000000001 1072.1000000000001 51.80000000000001Q1072.1000000000001 43.50000000000001 1075.5500000000002 37.10000000000001Q1079.0 30.700000000000003 1084.95 27.150000000000006Q1090.9 23.60000000000001 1098.1000000000001 23.60000000000001ZM1100.5 33.50000000000001Q1096.1000000000001 33.50000000000001 1092.3000000000002 35.650000000000006Q1088.5 37.800000000000004 1086.15 41.95Q1083.8000000000002 46.10000000000001 1083.8000000000002 51.80000000000001Q1083.8000000000002 57.50000000000001 1086.15 61.80000000000001Q1088.5 66.10000000000001 1092.35 68.35000000000001Q1096.2 70.60000000000001 1100.5 70.60000000000001Q1104.9 70.60000000000001 1108.7 68.4Q1112.5 66.2 1114.85 61.95Q1117.2 57.7 1117.2 52.00000000000001Q1117.2 46.300000000000004 1114.85 42.10000000000001Q1112.5 37.900000000000006 1108.7 35.7Q1104.9 33.50000000000001 1100.5 33.50000000000001Z M1165.0 69.4 1180.6000000000001 24.500000000000007H1192.7L1171.7 79.60000000000001H1158.1000000000001L1137.2 24.500000000000007H1149.4Z M1197.6 52.00000000000001Q1197.6 43.60000000000001 1201.3 37.10000000000001Q1205.0 30.60000000000001 1211.4 27.10000000000001Q1217.8 23.60000000000001 1225.7 23.60000000000001Q1233.6 23.60000000000001 1240.0 27.10000000000001Q1246.3999999999999 30.60000000000001 1250.1 37.10000000000001Q1253.8 43.60000000000001 1253.8 52.00000000000001Q1253.8 60.400000000000006 1250.0 66.9Q1246.2 73.4 1239.65 76.95000000000002Q1233.1 80.50000000000001 1225.2 80.50000000000001Q1217.3999999999999 80.50000000000001 1211.1 76.95000000000002Q1204.8 73.4 1201.1999999999998 66.95Q1197.6 60.50000000000001 1197.6 52.00000000000001ZM1242.1 52.00000000000001Q1242.1 46.00000000000001 1239.8 41.85000000000001Q1237.5 37.7 1233.6999999999998 35.60000000000001Q1229.8999999999999 33.50000000000001 1225.5 33.50000000000001Q1221.1 33.50000000000001 1217.35 35.60000000000001Q1213.6 37.7 1211.4 41.85000000000001Q1209.2 46.00000000000001 1209.2 52.00000000000001Q1209.2 60.900000000000006 1213.75 65.75Q1218.3 70.60000000000001 1225.2 70.60000000000001Q1229.6 70.60000000000001 1233.4499999999998 68.5Q1237.3 66.4 1239.6999999999998 62.2Q1242.1 58.00000000000001 1242.1 52.00000000000001Z M1263.6000000000001 9.900000000000006Q1263.6000000000001 6.800000000000011 1265.7000000000003 4.70000000000001Q1267.8000000000002 2.6000000000000085 1270.9 2.6000000000000085Q1273.9 2.6000000000000085 1276.0 4.70000000000001Q1278.1000000000001 6.800000000000011 1278.1000000000001 9.900000000000006Q1278.1000000000001 13.0 1276.0 15.100000000000001Q1273.9 17.200000000000003 1270.9 17.200000000000003Q1267.8000000000002 17.200000000000003 1265.7000000000003 15.100000000000001Q1263.6000000000001 13.0 1263.6000000000001 9.900000000000006ZM1276.5000000000002 24.500000000000007V79.60000000000001H1265.1000000000001V24.500000000000007Z M1319.4 23.60000000000001V35.400000000000006H1316.5Q1309.8 35.400000000000006 1306.35 38.80000000000001Q1302.9 42.20000000000001 1302.9 50.60000000000001V79.60000000000001H1291.5V24.500000000000007H1302.9V32.50000000000001Q1305.4 28.300000000000004 1309.5500000000002 25.950000000000006Q1313.7 23.60000000000001 1319.4 23.60000000000001Z M1372.2 38.60000000000001V48.2H1331.1000000000001V38.60000000000001Z M1411.5 33.800000000000004H1401.3000000000002V79.60000000000001H1389.8000000000002V33.800000000000004H1383.3000000000002V24.500000000000007H1389.8000000000002V20.60000000000001Q1389.8000000000002 11.100000000000009 1394.8500000000001 6.750000000000007Q1399.9 2.4000000000000057 1410.7 2.4000000000000057V11.900000000000006Q1405.5 11.900000000000006 1403.4 13.850000000000005Q1401.3000000000002 15.800000000000004 1401.3000000000002 20.60000000000001V24.500000000000007H1411.5Z M1443.8000000000002 23.60000000000001Q1450.3000000000002 23.60000000000001 1455.15 26.150000000000006Q1460.0000000000002 28.700000000000003 1462.9 32.50000000000001V24.500000000000007H1474.4V79.60000000000001H1462.9V71.4Q1460.0000000000002 75.30000000000001 1455.0000000000002 77.9Q1450.0000000000002 80.50000000000001 1443.6000000000001 80.50000000000001Q1436.5000000000002 80.50000000000001 1430.6000000000001 76.85000000000001Q1424.7 73.2 1421.25 66.65Q1417.8000000000002 60.10000000000001 1417.8000000000002 51.80000000000001Q1417.8000000000002 43.50000000000001 1421.25 37.10000000000001Q1424.7 30.700000000000003 1430.65 27.150000000000006Q1436.6000000000001 23.60000000000001 1443.8000000000002 23.60000000000001ZM1446.2 33.50000000000001Q1441.8000000000002 33.50000000000001 1438.0 35.650000000000006Q1434.2 37.800000000000004 1431.8500000000001 41.95Q1429.5000000000002 46.10000000000001 1429.5000000000002 51.80000000000001Q1429.5000000000002 57.50000000000001 1431.8500000000001 61.80000000000001Q1434.2 66.10000000000001 1438.0500000000002 68.35000000000001Q1441.9 70.60000000000001 1446.2 70.60000000000001Q1450.6000000000001 70.60000000000001 1454.4 68.4Q1458.2 66.2 1460.5500000000002 61.95Q1462.9 57.7 1462.9 52.00000000000001Q1462.9 46.300000000000004 1460.5500000000002 42.10000000000001Q1458.2 37.900000000000006 1454.4 35.7Q1450.6000000000001 33.50000000000001 1446.2 33.50000000000001Z M1487.9 9.900000000000006Q1487.9 6.800000000000011 1490.0 4.70000000000001Q1492.1000000000001 2.6000000000000085 1495.2 2.6000000000000085Q1498.2 2.6000000000000085 1500.3000000000002 4.70000000000001Q1502.4 6.800000000000011 1502.4 9.900000000000006Q1502.4 13.0 1500.3000000000002 15.100000000000001Q1498.2 17.200000000000003 1495.2 17.200000000000003Q1492.1000000000001 17.200000000000003 1490.0 15.100000000000001Q1487.9 13.0 1487.9 9.900000000000006ZM1500.8000000000002 24.500000000000007V79.60000000000001H1489.4V24.500000000000007Z M1543.7000000000003 23.60000000000001V35.400000000000006H1540.8000000000002Q1534.1000000000001 35.400000000000006 1530.65 38.80000000000001Q1527.2000000000003 42.20000000000001 1527.2000000000003 50.60000000000001V79.60000000000001H1515.8000000000002V24.500000000000007H1527.2000000000003V32.50000000000001Q1529.7000000000003 28.300000000000004 1533.8500000000004 25.950000000000006Q1538.0000000000002 23.60000000000001 1543.7000000000003 23.60000000000001Z M1604.3 56.30000000000001H1562.2Q1562.7 62.900000000000006 1567.1 66.9Q1571.5 70.9 1577.9 70.9Q1587.1000000000001 70.9 1590.9 63.2H1603.2Q1600.7 70.80000000000001 1594.15 75.65Q1587.6000000000001 80.50000000000001 1577.9 80.50000000000001Q1570.0 80.50000000000001 1563.75 76.95000000000002Q1557.5 73.4 1553.95 66.95Q1550.4 60.50000000000001 1550.4 52.00000000000001Q1550.4 43.50000000000001 1553.85 37.05000000000001Q1557.3 30.60000000000001 1563.55 27.10000000000001Q1569.8 23.60000000000001 1577.9 23.60000000000001Q1585.7 23.60000000000001 1591.8000000000002 27.000000000000007Q1597.9 30.400000000000006 1601.3000000000002 36.55000000000001Q1604.7 42.70000000000001 1604.7 50.7Q1604.7 53.80000000000001 1604.3 56.30000000000001ZM1592.8 47.10000000000001Q1592.7 40.800000000000004 1588.3000000000002 37.0Q1583.9 33.2 1577.4 33.2Q1571.5 33.2 1567.3000000000002 36.95Q1563.1000000000001 40.7 1562.3 47.10000000000001Z" fill="rgba(253,246,236,0.7)"/>
  </g>
</svg>
